<svg
        width="107"
        height="106"
        viewBox="0 0 107 106"
        fill="none"
        xmlns="http://www.w3.org/2000/svg"
>
    <g filter="url(#filter0_d_44_2220)">
        <rect
                x="21.5"
                y="13"
                width="64"
                height="64"
                rx="13"
                fill="#9848FF"
        />
    </g>
    <path
            d="M40 54.75V34.5C40 32.0147 42.0147 30 44.5 30H65.5C66.3284 30 67 30.6716 67 31.5V58.5C67 59.3284 66.3284 60 65.5 60H45.25C42.3505 60 40 57.6495 40 54.75ZM64 57V52.5H45.25C44.0074 52.5 43 53.5074 43 54.75C43 55.9926 44.0074 57 45.25 57H64ZM43 50.0052C43.6819 49.6812 44.4448 49.5 45.25 49.5H64V33H44.5C43.6716 33 43 33.6716 43 34.5V50.0052Z"
            fill="white"
    />
    <defs>
        <filter
                id="filter0_d_44_2220"
                x="0.5"
                y="0"
                width="106"
                height="106"
                filterUnits="userSpaceOnUse"
                color-interpolation-filters="sRGB"
        >
            <feFlood
                    flood-opacity="0"
                    result="BackgroundImageFix"
            />
            <feColorMatrix
                    in="SourceAlpha"
                    type="matrix"
                    values="0 0 0 0 0 0 0 0 0 0 0 0 0 0 0 0 0 0 127 0"
                    result="hardAlpha"
            />
            <feOffset dy="8"/>
            <feGaussianBlur stdDeviation="10.5"/>
            <feComposite in2="hardAlpha" operator="out"/>
            <feColorMatrix
                    type="matrix"
                    values="0 0 0 0 0.596078 0 0 0 0 0.282353 0 0 0 0 1 0 0 0 0.25 0"
            />
            <feBlend
                    mode="normal"
                    in2="BackgroundImageFix"
                    result="effect1_dropShadow_44_2220"
            />
            <feBlend
                    mode="normal"
                    in="SourceGraphic"
                    in2="effect1_dropShadow_44_2220"
                    result="shape"
            />
        </filter>
    </defs>
</svg>