<svg
        xmlns="http://www.w3.org/2000/svg"
        width="80"
        height="150"
        viewBox="0 0 84 193"
        fill="none"
>
    <path
            fill-rule="evenodd"
            clip-rule="evenodd"
            d="M6.00011 0H-6.00004V61.0392L-25.9038 4.44462L-37.0301 9.60884L-16.6106 67.6696L-55.1543 23.3902L-63.6396 33.1382L-26.6971 75.5779L-74.5718 51.5485L-79.3761 64.1811L-28.7192 89.6071H-84V103.393H-28.7193L-79.3761 128.819L-74.5718 141.452L-26.6972 117.422L-63.6396 159.862L-55.1543 169.609L-16.6106 125.33L-37.0301 183.391L-25.9038 188.555L-6.00004 131.961V193H6.00011V131.961L25.9039 188.555L37.0297 183.391L16.611 125.33L55.1544 169.609L63.6392 159.862L26.6969 117.422L74.5718 141.452L79.3758 128.819L28.7196 103.393H84V89.6071H28.7188L79.3758 64.1811L74.5718 51.5485L26.6969 75.5779L63.6392 33.1381L55.1544 23.3902L16.611 67.6695L37.0297 9.60884L25.9039 4.44462L6.00011 61.0392V0Z"
            fill="#525FE1"
    />
</svg>